<svg id="Capa_1" fill="white" height="512" stroke="white" viewBox="0 0 512 512" width="512" xmlns="http://www.w3.org/2000/svg"><g><path d="m497 0h-140c-8.284 0-15 6.716-15 15s6.716 15 15 15h103.787l-173.104 173.104c-31.503-26.601-70.975-41.104-112.683-41.104-46.744 0-90.69 18.203-123.744 51.256s-51.256 77-51.256 123.744 18.203 90.69 51.256 123.744 77 51.256 123.744 51.256 90.69-18.203 123.744-51.256 51.256-77 51.256-123.744c0-41.708-14.503-81.18-41.104-112.683l173.104-173.104v103.787c0 8.284 6.716 15 15 15s15-6.716 15-15v-140c0-8.284-6.716-15-15-15zm-219.469 439.531c-27.387 27.386-63.8 42.469-102.531 42.469s-75.144-15.083-102.531-42.469c-27.386-27.387-42.469-63.8-42.469-102.531s15.083-75.144 42.469-102.531c27.387-27.386 63.8-42.469 102.531-42.469s75.144 15.083 102.531 42.469c27.386 27.387 42.469 63.8 42.469 102.531s-15.083 75.144-42.469 102.531z"/></g></svg>